<svg xmlns="http://www.w3.org/2000/svg" xmlns:xlink="http://www.w3.org/1999/xlink" width="124" zoomAndPan="magnify" viewBox="0 0 93 20.25" height="27" preserveAspectRatio="xMidYMid meet" version="1.0"><defs><g/><clipPath id="b31a5d8643"><path d="M 6 2.285156 L 11 2.285156 L 11 12 L 6 12 Z M 6 2.285156 " clip-rule="nonzero"/></clipPath><clipPath id="afbcc74e35"><path d="M 1.660156 12 L 7 12 L 7 16 L 1.660156 16 Z M 1.660156 12 " clip-rule="nonzero"/></clipPath><clipPath id="5fa51b2684"><path d="M 11 14 L 15.402344 14 L 15.402344 16.75 L 11 16.75 Z M 11 14 " clip-rule="nonzero"/></clipPath><clipPath id="24a35687f9"><path d="M 5 13 L 15 13 L 15 16.75 L 5 16.75 Z M 5 13 " clip-rule="nonzero"/></clipPath><clipPath id="08212fc439"><path d="M 13 15 L 14 15 L 14 16.75 L 13 16.75 Z M 13 15 " clip-rule="nonzero"/></clipPath><clipPath id="4f2546b8c5"><path d="M 12 15 L 13 15 L 13 16.75 L 12 16.75 Z M 12 15 " clip-rule="nonzero"/></clipPath><clipPath id="d85b8164ce"><path d="M 13 16 L 14 16 L 14 16.75 L 13 16.75 Z M 13 16 " clip-rule="nonzero"/></clipPath><clipPath id="b248cfa9a4"><path d="M 12 16 L 13 16 L 13 16.75 L 12 16.75 Z M 12 16 " clip-rule="nonzero"/></clipPath></defs><path fill="#55b1e7" d="M 12.871094 9.941406 L 10.867188 8.535156 L 10.867188 8.328125 L 12.871094 9.734375 Z M 12.871094 10.429688 L 10.867188 9.023438 L 10.867188 8.816406 L 12.871094 10.222656 Z M 12.871094 10.917969 L 10.867188 9.511719 L 10.867188 9.304688 L 12.871094 10.710938 Z M 12.871094 11.40625 L 10.867188 10 L 10.867188 9.789062 L 12.871094 11.195312 Z M 12.871094 11.894531 L 10.867188 10.488281 L 10.867188 10.277344 L 12.871094 11.683594 Z M 12.871094 12.382812 L 10.867188 10.976562 L 10.867188 10.765625 L 12.871094 12.171875 Z M 12.871094 12.867188 L 10.867188 11.460938 L 10.867188 11.253906 L 12.871094 12.660156 Z M 10.867188 7.890625 L 10.433594 8.140625 L 10.433594 11.96875 L 10.726562 12.003906 L 10.800781 12.074219 L 11.242188 12.492188 L 12.339844 13.261719 L 12.671875 13.214844 L 10.867188 11.949219 L 10.867188 11.742188 L 12.871094 13.148438 L 12.871094 13.1875 L 12.925781 13.179688 L 13.097656 13.15625 L 13.121094 13.183594 L 13.121094 9.472656 Z M 10.027344 8.371094 L 10.027344 9.960938 L 9.914062 9.960938 L 9.914062 8.4375 L 9.527344 8.65625 L 9.527344 11.140625 L 9.449219 11.140625 L 9.449219 8.703125 L 9.199219 8.847656 L 9.199219 11.4375 L 10.007812 11.4375 L 10.007812 11.914062 L 10.269531 11.945312 L 10.269531 8.234375 L 10.027344 8.371094 " fill-opacity="1" fill-rule="nonzero"/><path fill="#211c1d" d="M 8.976562 14.464844 L 8.996094 14.484375 L 8.996094 14.65625 L 8.976562 14.636719 L 8.894531 14.566406 L 8.894531 14.394531 L 8.976562 14.464844 " fill-opacity="1" fill-rule="nonzero"/><g clip-path="url(#b31a5d8643)"><path fill="#3672c1" d="M 10.527344 5.691406 L 10.042969 5.265625 L 10.042969 4.308594 L 10.527344 4.738281 Z M 10.527344 6.820312 L 10.042969 6.390625 L 10.042969 5.4375 L 10.527344 5.863281 Z M 9.957031 5.1875 L 9.640625 4.910156 L 9.46875 4.761719 L 9.46875 3.804688 L 9.640625 3.953125 L 9.957031 4.234375 Z M 9.957031 6.3125 L 9.640625 6.035156 L 9.46875 5.886719 L 9.46875 4.933594 L 9.640625 5.082031 L 9.957031 5.359375 Z M 9.957031 7.441406 L 9.640625 7.164062 L 9.46875 7.011719 L 9.46875 6.058594 L 9.640625 6.207031 L 9.957031 6.484375 Z M 9.382812 4.683594 L 9.308594 4.617188 L 8.976562 4.328125 L 8.894531 4.253906 L 8.894531 3.300781 L 8.976562 3.371094 L 9.308594 3.664062 L 9.382812 3.730469 Z M 9.382812 5.808594 L 9.308594 5.746094 L 8.976562 5.453125 L 8.894531 5.382812 L 8.894531 4.429688 L 8.976562 4.5 L 9.308594 4.789062 L 9.382812 4.855469 Z M 9.382812 6.9375 L 9.308594 6.871094 L 8.976562 6.578125 L 8.894531 6.507812 L 8.894531 5.554688 L 8.976562 5.625 L 9.308594 5.917969 L 9.382812 5.980469 Z M 9.382812 8.0625 L 9.308594 7.996094 L 8.976562 7.707031 L 8.894531 7.636719 L 8.894531 6.679688 L 8.976562 6.753906 L 9.308594 7.042969 L 9.382812 7.109375 Z M 8.808594 4.179688 L 8.644531 4.035156 L 8.355469 3.78125 L 8.320312 3.75 L 8.320312 2.796875 L 8.355469 2.824219 L 8.644531 3.082031 L 8.808594 3.222656 Z M 8.808594 5.304688 L 8.644531 5.160156 L 8.355469 4.90625 L 8.320312 4.878906 L 8.320312 3.921875 L 8.355469 3.953125 L 8.644531 4.207031 L 8.808594 4.351562 Z M 8.808594 6.433594 L 8.644531 6.289062 L 8.355469 6.035156 L 8.320312 6.003906 L 8.320312 5.050781 L 8.355469 5.078125 L 8.644531 5.332031 L 8.808594 5.476562 Z M 8.808594 7.558594 L 8.644531 7.414062 L 8.355469 7.160156 L 8.320312 7.132812 L 8.320312 6.175781 L 8.355469 6.207031 L 8.644531 6.460938 L 8.808594 6.605469 Z M 8.808594 8.683594 L 8.644531 8.542969 L 8.355469 8.285156 L 8.320312 8.257812 L 8.320312 7.304688 L 8.355469 7.332031 L 8.644531 7.585938 L 8.808594 7.730469 Z M 8.808594 9.8125 L 8.644531 9.667969 L 8.355469 9.414062 L 8.320312 9.382812 L 8.320312 8.429688 L 8.355469 8.460938 L 8.644531 8.714844 L 8.808594 8.859375 Z M 8.808594 10.9375 L 8.644531 10.792969 L 8.355469 10.539062 L 8.320312 10.511719 L 8.320312 9.558594 L 8.355469 9.585938 L 8.644531 9.839844 L 8.808594 9.984375 Z M 10.539062 4.441406 L 9.949219 3.921875 L 9.617188 3.632812 L 9.289062 3.339844 L 8.957031 3.046875 L 8.625 2.757812 L 8.335938 2.5 L 8.09375 2.292969 L 6.148438 3.6875 L 6.148438 5.839844 L 7.488281 6.382812 L 7.613281 6.433594 L 7.613281 11.699219 L 8.53125 11.824219 L 8.320312 11.636719 L 8.320312 10.683594 L 8.355469 10.710938 L 8.644531 10.96875 L 8.808594 11.109375 L 8.808594 11.4375 L 8.894531 11.4375 L 8.894531 7.808594 L 8.976562 7.878906 L 9.308594 8.167969 L 9.382812 8.234375 L 9.382812 8.394531 L 9.46875 8.34375 L 9.46875 8.3125 L 9.492188 8.332031 L 9.609375 8.265625 L 9.46875 8.140625 L 9.46875 7.183594 L 9.640625 7.335938 L 9.957031 7.613281 L 9.957031 8.066406 L 10.042969 8.015625 L 10.042969 7.691406 L 10.269531 7.886719 L 10.28125 7.878906 L 10.386719 7.820312 L 10.042969 7.515625 L 10.042969 6.5625 L 10.527344 6.992188 L 10.527344 7.738281 L 10.683594 7.652344 L 10.683594 4.566406 L 10.539062 4.441406 " fill-opacity="1" fill-rule="nonzero"/></g><path fill="#55b1e7" d="M 3.941406 7.289062 L 5.625 6.355469 L 5.625 6.738281 L 5.8125 6.605469 L 7.308594 7.207031 L 7.308594 6.671875 L 5.664062 6.007812 L 3.941406 7.289062 " fill-opacity="1" fill-rule="nonzero"/><path fill="#55b1e7" d="M 3.941406 8.183594 L 5.625 7.25 L 5.625 7.628906 L 5.8125 7.496094 L 7.308594 8.101562 L 7.308594 7.566406 L 5.664062 6.902344 L 3.941406 8.183594 " fill-opacity="1" fill-rule="nonzero"/><path fill="#55b1e7" d="M 3.941406 9.078125 L 5.625 8.140625 L 5.625 8.523438 L 5.8125 8.390625 L 7.308594 8.996094 L 7.308594 8.457031 L 5.664062 7.792969 L 3.941406 9.078125 " fill-opacity="1" fill-rule="nonzero"/><path fill="#55b1e7" d="M 3.941406 9.96875 L 5.625 9.035156 L 5.625 9.417969 L 5.8125 9.285156 L 7.308594 9.886719 L 7.308594 9.351562 L 5.664062 8.6875 L 3.941406 9.96875 " fill-opacity="1" fill-rule="nonzero"/><path fill="#55b1e7" d="M 3.941406 10.863281 L 5.625 9.929688 L 5.625 10.308594 L 5.8125 10.175781 L 7.308594 10.78125 L 7.308594 10.246094 L 5.664062 9.582031 L 3.941406 10.863281 " fill-opacity="1" fill-rule="nonzero"/><path fill="#55b1e7" d="M 3.941406 11.757812 L 4.363281 11.441406 L 4.246094 11.589844 Z M 3.941406 11.757812 " fill-opacity="1" fill-rule="nonzero"/><path fill="#55b1e7" d="M 7.308594 11.136719 L 7.308594 11.675781 L 7.257812 11.652344 L 5.8125 11.070312 L 5.625 11.203125 L 5.625 10.824219 L 4.730469 11.320312 L 4.65625 11.308594 L 4.558594 11.296875 L 5.664062 10.472656 L 7.308594 11.136719 " fill-opacity="1" fill-rule="nonzero"/><path fill="#55b1e7" d="M 5.941406 11.480469 L 5.578125 11.429688 L 5.664062 11.367188 Z M 5.941406 11.480469 " fill-opacity="1" fill-rule="nonzero"/><g clip-path="url(#afbcc74e35)"><path fill="#4c9ada" d="M 6.394531 14.351562 C 6.363281 14.324219 5.191406 13.550781 4.617188 13.082031 L 1.660156 15.582031 L 4.398438 12.722656 L 4.617188 12.492188 L 4.988281 12.882812 L 6.394531 14.351562 " fill-opacity="1" fill-rule="nonzero"/></g><path fill="#3e3d3f" d="M 9.804688 13.28125 L 8.636719 13.28125 L 8.636719 13.683594 L 8.171875 13.742188 L 8.074219 13.753906 L 8 13.820312 L 7.136719 14.640625 L 4.617188 12.011719 L 2.519531 14.199219 L 4.617188 11.605469 L 8.796875 12.160156 L 8.796875 12.667969 L 9.019531 12.898438 L 9.019531 11.734375 L 9.707031 11.734375 L 9.707031 12.179688 L 10.589844 12.289062 L 11.707031 13.347656 L 9.804688 13.613281 L 9.804688 13.28125 " fill-opacity="1" fill-rule="nonzero"/><path fill="#4c9ada" d="M 4.042969 14.558594 L 4.042969 14.6875 L 4.515625 14.6875 L 4.515625 14.085938 C 4.253906 14.085938 4.042969 14.300781 4.042969 14.558594 " fill-opacity="1" fill-rule="nonzero"/><path fill="#4c9ada" d="M 4.703125 14.085938 L 4.703125 14.6875 L 5.179688 14.6875 L 5.179688 14.558594 C 5.179688 14.300781 4.96875 14.085938 4.703125 14.085938 " fill-opacity="1" fill-rule="nonzero"/><path fill="#4c9ada" d="M 4.042969 15.347656 L 4.515625 15.347656 L 4.515625 14.875 L 4.042969 14.875 L 4.042969 15.347656 " fill-opacity="1" fill-rule="nonzero"/><path fill="#4c9ada" d="M 4.703125 15.347656 L 5.179688 15.347656 L 5.179688 14.875 L 4.703125 14.875 L 4.703125 15.347656 " fill-opacity="1" fill-rule="nonzero"/><g clip-path="url(#5fa51b2684)"><path fill="#3e3d3f" d="M 15.402344 16.746094 L 13.691406 15.300781 L 12.96875 14.691406 C 12.75 14.871094 12.425781 15.101562 12.136719 15.300781 C 11.804688 15.53125 11.519531 15.722656 11.507812 15.734375 L 11.917969 15.300781 L 12.664062 14.527344 L 12.796875 14.386719 L 12.96875 14.207031 L 13.148438 14.394531 L 15.402344 16.746094 " fill-opacity="1" fill-rule="nonzero"/></g><g clip-path="url(#24a35687f9)"><path fill="#4c9ada" d="M 14.695312 15.609375 L 12.96875 13.808594 L 12.597656 14.195312 L 11.539062 15.300781 L 10.375 16.515625 L 5.601562 16.515625 L 7.347656 14.859375 L 8.207031 14.039062 L 8.9375 13.949219 L 8.9375 13.582031 L 9.503906 13.582031 L 9.503906 14.539062 L 9.683594 14.347656 L 9.683594 13.933594 L 11.984375 13.613281 L 12.96875 13.476562 L 14.695312 15.609375 " fill-opacity="1" fill-rule="nonzero"/></g><g clip-path="url(#08212fc439)"><path fill="#3e3d3f" d="M 13.441406 15.90625 L 13.441406 16.011719 L 13.050781 16.011719 L 13.050781 15.515625 C 13.265625 15.515625 13.441406 15.691406 13.441406 15.90625 " fill-opacity="1" fill-rule="nonzero"/></g><g clip-path="url(#4f2546b8c5)"><path fill="#3e3d3f" d="M 12.898438 15.515625 L 12.898438 16.011719 L 12.507812 16.011719 L 12.507812 15.90625 C 12.507812 15.691406 12.679688 15.515625 12.898438 15.515625 " fill-opacity="1" fill-rule="nonzero"/></g><g clip-path="url(#d85b8164ce)"><path fill="#3e3d3f" d="M 13.441406 16.554688 L 13.050781 16.554688 L 13.050781 16.164062 L 13.441406 16.164062 L 13.441406 16.554688 " fill-opacity="1" fill-rule="nonzero"/></g><g clip-path="url(#b248cfa9a4)"><path fill="#3e3d3f" d="M 12.898438 16.554688 L 12.507812 16.554688 L 12.507812 16.164062 L 12.898438 16.164062 L 12.898438 16.554688 " fill-opacity="1" fill-rule="nonzero"/></g><path fill="#211c1d" d="M 7.257812 11.652344 L 7.308594 11.675781 L 7.308594 11.660156 Z M 7.257812 11.652344 " fill-opacity="1" fill-rule="nonzero"/><g fill="#3e3d3f" fill-opacity="1"><g transform="translate(16.217212, 11.946084)"><g><path d="M 0.265625 0 L 0.265625 -7.6875 L 1.75 -7.6875 L 1.75 0 Z M 0.265625 0 "/></g></g></g><g fill="#3e3d3f" fill-opacity="1"><g transform="translate(19.857618, 11.946084)"><g><path d="M 0.34375 0 L 0.34375 -7.6875 L 2.6875 -7.6875 L 3.328125 -3 L 3.96875 -7.6875 L 6.34375 -7.6875 L 6.34375 0 L 4.9375 0 L 4.9375 -5.546875 L 4.046875 0 L 2.671875 0 L 1.734375 -5.546875 L 1.734375 0 Z M 0.34375 0 "/></g></g></g><g fill="#3e3d3f" fill-opacity="1"><g transform="translate(28.137097, 11.946084)"><g><path d="M 2.171875 0.078125 C 1.554688 0.078125 1.085938 -0.109375 0.765625 -0.484375 C 0.441406 -0.867188 0.28125 -1.40625 0.28125 -2.09375 L 0.28125 -5.75 C 0.28125 -6.414062 0.441406 -6.914062 0.765625 -7.25 C 1.085938 -7.59375 1.554688 -7.765625 2.171875 -7.765625 C 2.796875 -7.765625 3.269531 -7.59375 3.59375 -7.25 C 3.914062 -6.914062 4.078125 -6.414062 4.078125 -5.75 L 4.078125 -2.09375 C 4.078125 -1.40625 3.914062 -0.867188 3.59375 -0.484375 C 3.269531 -0.109375 2.796875 0.078125 2.171875 0.078125 Z M 2.171875 -1.34375 C 2.304688 -1.34375 2.398438 -1.398438 2.453125 -1.515625 C 2.503906 -1.640625 2.53125 -1.804688 2.53125 -2.015625 L 2.53125 -5.78125 C 2.53125 -5.945312 2.503906 -6.082031 2.453125 -6.1875 C 2.410156 -6.289062 2.320312 -6.34375 2.1875 -6.34375 C 1.925781 -6.34375 1.796875 -6.148438 1.796875 -5.765625 L 1.796875 -2.015625 C 1.796875 -1.796875 1.820312 -1.628906 1.875 -1.515625 C 1.925781 -1.398438 2.023438 -1.34375 2.171875 -1.34375 Z M 2.171875 -1.34375 "/></g></g></g><g fill="#3e3d3f" fill-opacity="1"><g transform="translate(34.092569, 11.946084)"><g><path d="M 0.34375 -7.6875 L 2.421875 -7.6875 C 2.984375 -7.6875 3.390625 -7.546875 3.640625 -7.265625 C 3.898438 -6.992188 4.03125 -6.550781 4.03125 -5.9375 L 4.03125 -5.59375 C 4.03125 -4.863281 3.765625 -4.425781 3.234375 -4.28125 C 3.554688 -4.195312 3.785156 -4 3.921875 -3.6875 C 4.054688 -3.382812 4.125 -2.984375 4.125 -2.484375 C 4.125 -1.671875 4 -1.050781 3.75 -0.625 C 3.507812 -0.207031 3.066406 0 2.421875 0 L 0.34375 0 Z M 2.15625 -4.796875 C 2.289062 -4.796875 2.378906 -4.84375 2.421875 -4.9375 C 2.472656 -5.039062 2.5 -5.179688 2.5 -5.359375 L 2.5 -6.140625 C 2.5 -6.390625 2.390625 -6.515625 2.171875 -6.515625 L 1.84375 -6.515625 L 1.84375 -4.796875 Z M 2 -1.359375 C 2.394531 -1.359375 2.59375 -1.546875 2.59375 -1.921875 L 2.59375 -2.890625 C 2.59375 -3.117188 2.554688 -3.289062 2.484375 -3.40625 C 2.421875 -3.53125 2.300781 -3.59375 2.125 -3.59375 L 1.84375 -3.59375 L 1.84375 -1.359375 Z M 2 -1.359375 "/></g></g></g><g fill="#3e3d3f" fill-opacity="1"><g transform="translate(39.985483, 11.946084)"><g><path d="M 0.265625 0 L 0.265625 -7.6875 L 1.75 -7.6875 L 1.75 0 Z M 0.265625 0 "/></g></g></g><g fill="#3672c1" fill-opacity="1"><g transform="translate(43.631551, 11.946084)"><g><path d="M 0.34375 0 L 0.34375 -7.6875 L 2.6875 -7.6875 L 3.328125 -3 L 3.96875 -7.6875 L 6.34375 -7.6875 L 6.34375 0 L 4.9375 0 L 4.9375 -5.546875 L 4.046875 0 L 2.671875 0 L 1.734375 -5.546875 L 1.734375 0 Z M 0.34375 0 "/></g></g></g><g fill="#3672c1" fill-opacity="1"><g transform="translate(51.91103, 11.946084)"><g><path d="M 0.140625 0 L 0.875 -7.6875 L 3.484375 -7.6875 L 4.21875 0 L 2.75 0 L 2.65625 -1.25 L 1.71875 -1.25 L 1.625 0 Z M 1.828125 -2.46875 L 2.53125 -2.46875 L 2.1875 -6.390625 L 2.125 -6.390625 Z M 1.828125 -2.46875 "/></g></g></g><g fill="#3672c1" fill-opacity="1"><g transform="translate(57.857565, 11.946084)"><g><path d="M 0.34375 0 L 0.34375 -7.6875 L 1.921875 -7.6875 L 2.625 -4.015625 L 2.625 -7.6875 L 4.125 -7.6875 L 4.125 0 L 2.609375 0 L 1.84375 -3.84375 L 1.84375 0 Z M 0.34375 0 "/></g></g></g><g fill="#3672c1" fill-opacity="1"><g transform="translate(63.920301, 11.946084)"><g><path d="M 0.140625 0 L 0.875 -7.6875 L 3.484375 -7.6875 L 4.21875 0 L 2.75 0 L 2.65625 -1.25 L 1.71875 -1.25 L 1.625 0 Z M 1.828125 -2.46875 L 2.53125 -2.46875 L 2.1875 -6.390625 L 2.125 -6.390625 Z M 1.828125 -2.46875 "/></g></g></g><g fill="#3672c1" fill-opacity="1"><g transform="translate(69.866836, 11.946084)"><g><path d="M 1.921875 0.078125 C 1.367188 0.078125 0.957031 -0.113281 0.6875 -0.5 C 0.414062 -0.894531 0.28125 -1.492188 0.28125 -2.296875 L 0.28125 -5.609375 C 0.28125 -6.316406 0.4375 -6.851562 0.75 -7.21875 C 1.070312 -7.582031 1.546875 -7.765625 2.171875 -7.765625 C 2.671875 -7.765625 3.0625 -7.660156 3.34375 -7.453125 C 3.625 -7.253906 3.816406 -6.957031 3.921875 -6.5625 C 4.035156 -6.175781 4.09375 -5.679688 4.09375 -5.078125 L 2.59375 -5.078125 L 2.59375 -5.765625 C 2.59375 -5.953125 2.566406 -6.09375 2.515625 -6.1875 C 2.460938 -6.289062 2.367188 -6.34375 2.234375 -6.34375 C 1.941406 -6.34375 1.796875 -6.15625 1.796875 -5.78125 L 1.796875 -2.046875 C 1.796875 -1.816406 1.828125 -1.640625 1.890625 -1.515625 C 1.953125 -1.398438 2.054688 -1.34375 2.203125 -1.34375 C 2.347656 -1.34375 2.453125 -1.398438 2.515625 -1.515625 C 2.578125 -1.640625 2.609375 -1.816406 2.609375 -2.046875 L 2.609375 -3.15625 L 2.1875 -3.15625 L 2.1875 -4.46875 L 4.078125 -4.46875 L 4.078125 0 L 3.453125 0 L 3.203125 -0.640625 C 2.921875 -0.160156 2.492188 0.078125 1.921875 0.078125 Z M 1.921875 0.078125 "/></g></g></g><g fill="#3672c1" fill-opacity="1"><g transform="translate(75.813371, 11.946084)"><g><path d="M 0.34375 0 L 0.34375 -7.6875 L 3.421875 -7.6875 L 3.421875 -6.203125 L 1.90625 -6.203125 L 1.90625 -4.703125 L 3.359375 -4.703125 L 3.359375 -3.265625 L 1.90625 -3.265625 L 1.90625 -1.5 L 3.515625 -1.5 L 3.515625 0 Z M 0.34375 0 "/></g></g></g><g fill="#3672c1" fill-opacity="1"><g transform="translate(81.107407, 11.946084)"><g><path d="M 0.34375 -7.6875 L 2.703125 -7.6875 C 3.078125 -7.6875 3.367188 -7.601562 3.578125 -7.4375 C 3.785156 -7.269531 3.921875 -7.03125 3.984375 -6.71875 C 4.054688 -6.414062 4.09375 -6.023438 4.09375 -5.546875 C 4.09375 -5.109375 4.035156 -4.765625 3.921875 -4.515625 C 3.816406 -4.273438 3.625 -4.109375 3.34375 -4.015625 C 3.570312 -3.960938 3.738281 -3.84375 3.84375 -3.65625 C 3.945312 -3.476562 4 -3.226562 4 -2.90625 L 3.984375 0 L 2.484375 0 L 2.484375 -3.015625 C 2.484375 -3.222656 2.441406 -3.359375 2.359375 -3.421875 C 2.273438 -3.484375 2.117188 -3.515625 1.890625 -3.515625 L 1.890625 0 L 0.34375 0 Z M 2.28125 -4.84375 C 2.488281 -4.84375 2.59375 -5.078125 2.59375 -5.546875 C 2.59375 -5.742188 2.582031 -5.894531 2.5625 -6 C 2.550781 -6.101562 2.519531 -6.171875 2.46875 -6.203125 C 2.425781 -6.242188 2.359375 -6.265625 2.265625 -6.265625 L 1.90625 -6.265625 L 1.90625 -4.84375 Z M 2.28125 -4.84375 "/></g></g></g></svg>